<?xml version="1.0" encoding="UTF-8"?>
<svg id="Layer_1" data-name="Layer 1" xmlns="http://www.w3.org/2000/svg" viewBox="0 0 128 128">
  <defs>
    <style>
      .cls-1 {
        fill: #2a2a2a;
        stroke-width: 0px;
      }
    </style>
  </defs>
  <path class="cls-1" d="M96.13,64.03c-.14,17.21-13.57,32.09-32.17,32.07-18.51-.01-32.12-14.89-32.07-32.26.05-17.62,14.58-32.04,32.14-32.01,17.63.03,32.22,14.66,32.1,32.2ZM68.24,87.26c10.09-1.58,19.88-10.88,19.46-23.97-.45-14.16-11.84-21.67-19.46-22.52v46.48ZM40.5,68.1h19.21v-8.22h-19.21v8.22ZM59.76,40.79c-5.27.21-14.14,6.24-15.59,10.54h15.59v-10.54ZM43.86,76.59c3.94,5.87,9.12,9.39,15.84,10.74v-10.74h-15.84Z"/>
  <path class="cls-1" d="M68.19,13.83c0,1.79.02,3.57,0,5.36-.04,2.48-1.79,4.28-4.14,4.3-2.41.02-4.21-1.81-4.22-4.34-.02-3.61-.03-7.23,0-10.84.02-2.49,1.77-4.27,4.13-4.29,2.42-.02,4.2,1.79,4.23,4.34.02,1.83,0,3.66,0,5.49Z"/>
  <path class="cls-1" d="M13.85,59.81c1.79,0,3.57-.02,5.36,0,2.46.04,4.27,1.81,4.28,4.16.01,2.36-1.77,4.18-4.23,4.2-3.66.04-7.32.03-10.98,0-2.47-.02-4.27-1.8-4.28-4.16,0-2.38,1.76-4.16,4.23-4.2,1.87-.03,3.75,0,5.62,0Z"/>
  <path class="cls-1" d="M114.37,59.81c1.79,0,3.57-.02,5.36,0,2.46.04,4.27,1.81,4.28,4.16.01,2.36-1.77,4.18-4.23,4.2-3.66.04-7.32.03-10.98,0-2.47-.02-4.27-1.8-4.28-4.16,0-2.38,1.76-4.14,4.23-4.21.09,0,.17,0,.26,0,1.79,0,3.57,0,5.36,0Z"/>
  <path class="cls-1" d="M91.21,95.69c.26-1.85,1.05-3.14,2.6-3.86,1.54-.71,3.16-.65,4.4.54,2.9,2.76,5.74,5.59,8.48,8.51,1.52,1.62,1.25,4.16-.35,5.66-1.58,1.48-3.99,1.61-5.57.1-2.83-2.71-5.6-5.48-8.3-8.33-.63-.67-.86-1.73-1.27-2.61Z"/>
  <path class="cls-1" d="M68.19,114.33c0,1.79.02,3.57,0,5.36-.04,2.54-1.83,4.35-4.25,4.32-2.34-.03-4.1-1.85-4.11-4.32-.02-3.61-.03-7.23,0-10.84.02-2.55,1.81-4.34,4.24-4.32,2.35.03,4.09,1.83,4.12,4.32.02,1.83,0,3.66,0,5.49Z"/>
  <path class="cls-1" d="M31.88,91.44c2.24.1,3.54.89,4.26,2.45.71,1.55.6,3.16-.58,4.4-2.73,2.87-5.53,5.68-8.41,8.4-1.62,1.53-4.14,1.28-5.66-.31-1.49-1.57-1.64-3.98-.13-5.57,2.7-2.84,5.48-5.61,8.32-8.3.67-.63,1.74-.84,2.21-1.06Z"/>
  <path class="cls-1" d="M25.28,20.48c.51.28,1.63.63,2.4,1.35,2.57,2.41,5.04,4.94,7.51,7.46,1.79,1.82,1.83,4.41.16,6.08-1.67,1.67-4.26,1.62-6.07-.17-2.54-2.51-5.07-5.03-7.57-7.59-1.28-1.31-1.56-2.91-.85-4.59.69-1.64,2.03-2.43,4.41-2.54Z"/>
  <path class="cls-1" d="M107.54,25.19c-.29.54-.62,1.68-1.34,2.45-2.44,2.61-5,5.1-7.55,7.61-1.76,1.73-4.32,1.76-5.98.15-1.69-1.64-1.68-4.27.1-6.07,2.5-2.55,5.03-5.07,7.58-7.58,1.31-1.29,2.89-1.59,4.58-.9,1.65.67,2.45,2.01,2.61,4.35Z"/>
</svg>